<svg xmlns="http://www.w3.org/2000/svg" width="762" height="567" viewBox="0 0 762 567">
  <g id="Group_6" data-name="Group 6" transform="translate(-94 -1164)">
    <g id="Group_5" data-name="Group 5">
      <g id="Group_4" data-name="Group 4">
        <rect id="Rectangle_1495" data-name="Rectangle 1495" width="762" height="567" transform="translate(94 1164)" fill="none"/>
        <g id="facial-recognition" transform="translate(344 1316)">
          <g id="Group_3" data-name="Group 3" transform="translate(0)">
            <g id="Group_2" data-name="Group 2">
              <path id="Path_10" data-name="Path 10" d="M4.378,61.289a4.375,4.375,0,0,0,4.378-4.378V13.133a4.381,4.381,0,0,1,4.378-4.378H56.91a4.378,4.378,0,0,0,0-8.756H13.133A13.147,13.147,0,0,0,0,13.133V56.911a4.376,4.376,0,0,0,4.378,4.378Z" transform="translate(0)" fill="#fff"/>
              <path id="Path_11" data-name="Path 11" d="M440.689,0H396.912a4.378,4.378,0,1,0,0,8.755h43.778a4.38,4.38,0,0,1,4.378,4.378V56.91a4.378,4.378,0,1,0,8.755,0V13.133A13.147,13.147,0,0,0,440.689,0Z" transform="translate(-191.156)" fill="#fff"/>
              <path id="Path_12" data-name="Path 12" d="M449.445,392.533a4.375,4.375,0,0,0-4.378,4.378v43.778a4.38,4.38,0,0,1-4.378,4.378H396.913a4.378,4.378,0,1,0,0,8.755H440.69a13.147,13.147,0,0,0,13.133-13.133V396.911a4.375,4.375,0,0,0-4.378-4.378Z" transform="translate(-191.156 -191.155)" fill="#fff"/>
              <path id="Path_13" data-name="Path 13" d="M56.911,445.067H13.133a4.381,4.381,0,0,1-4.378-4.378V396.912a4.378,4.378,0,0,0-8.756,0v43.778a13.147,13.147,0,0,0,13.133,13.133H56.911a4.378,4.378,0,0,0,0-8.756Z" transform="translate(0 -191.156)" fill="#fff"/>
              <path id="Path_14" data-name="Path 14" d="M258.289,95.644H213.954A72.456,72.456,0,0,0,208.774,71c-8.987-18.25-35.475-45.4-71.622-45.4H125.515C89.369,25.6,62.879,52.748,53.893,71a72.442,72.442,0,0,0-5.179,24.647H4.378a4.378,4.378,0,0,0,0,8.755H48.265c-.095,3.207-.121,6.375-.1,9.415a14.777,14.777,0,0,0-2.438-.569,13.519,13.519,0,0,0-11.342,3.967A18.152,18.152,0,0,0,31.064,132.8a104.805,104.805,0,0,0,4.92,17.25l.744,2.142c.522,1.5.962,3.1,1.407,4.69a38.262,38.262,0,0,0,5.083,12.373,11.627,11.627,0,0,0,8.49,5.173c.209.013.432.022.663.022.183,0,.4-.042.593-.053.29,4,.48,7.591.48,10.211,0,14.971,14.087,33.278,22.415,41.734a189.738,189.738,0,0,0,15.155,13.2,181.491,181.491,0,0,1,14.458,12.569A30.4,30.4,0,0,0,125.515,262h11.637a30.4,30.4,0,0,0,20.042-9.893,183,183,0,0,1,14.45-12.565,189.271,189.271,0,0,0,15.168-13.21c8.324-8.452,22.41-26.758,22.41-41.73,0-2.619.19-6.209.48-10.211.193.011.41.053.593.053.231,0,.453-.009.663-.022a11.644,11.644,0,0,0,8.5-5.19,38.257,38.257,0,0,0,5.07-12.355c.445-1.594.885-3.185,1.407-4.69l.744-2.142a104.585,104.585,0,0,0,4.916-17.238,18.144,18.144,0,0,0-3.331-15.6,13.492,13.492,0,0,0-11.329-3.959,14.789,14.789,0,0,0-2.435.569c.021-3.039-.005-6.207-.1-9.415h43.886a4.377,4.377,0,1,0,0-8.755ZM50.319,164.128a31.478,31.478,0,0,1-3.749-9.6c-.5-1.77-.988-3.531-1.565-5.2l-.757-2.168a96.722,96.722,0,0,1-4.553-15.827,10.472,10.472,0,0,1,.876-7.917,4.976,4.976,0,0,1,4.172-1.467,6.673,6.673,0,0,1,3.648,1.754c.3,7.854.79,13.488.854,14.193.025.22,1.761,14.391,2.992,27.776A3.475,3.475,0,0,1,50.319,164.128Zm6.909-43.457c-.054-.086-.129-.149-.184-.233-.141-5.052-.169-10.555,0-16.038h8.628v14.245l-8.41,2.1C57.242,120.723,57.242,120.7,57.227,120.672ZM70.044,204.99A42.071,42.071,0,0,1,62.2,184.6c0-4.069-.4-10.13-.956-16.577a4.266,4.266,0,0,0-.069-.775c-.921-10.52-2.216-21.825-2.849-27.161l11.719,14.057Zm-9.586-76.022,9.855-2.46,30.972,3.867,2.971,17.8H76.47ZM74.422,118.2V104.4h14.8l8.3,16.681ZM99,104.4h21.806l-14.537,14.618ZM78.8,162.2l24.707,21.618-9.383,12.511H78.8Zm5.994,60.574c-.935-.867-1.856-1.731-2.7-2.586-1.043-1.06-2.155-2.262-3.3-3.568V205.089H94.124l8.312,11.083Zm26.921,23.181A189.473,189.473,0,0,0,96.533,232.74c-1.4-1.137-2.807-2.284-4.2-3.436l15.119-5.662,16.3,29.34A23.873,23.873,0,0,1,111.714,245.959Zm15.241-5.229L116.884,222.6h10.072Zm0-26.886H111.632l-9.848-13.133,9.848-13.133h15.324Zm0-35.022H111.091L86.074,156.933h22.238l18.643,7.45v14.439Zm0-23.868-13.6-5.434-3.6-21.592,17.2-17.3ZM57.5,95.644a62.635,62.635,0,0,1,4.252-20.781c7.712-15.66,31.841-40.507,63.764-40.507h11.637c31.923,0,56.052,24.847,63.764,40.507a62.7,62.7,0,0,1,4.25,20.781H57.5ZM188.244,104.4v13.8l-23.093,2.885,8.3-16.681Zm-52.533,74.422V164.383l18.644-7.45h22.238l-25.016,21.889Zm25.172,21.889-9.848,13.133H135.711V187.578h15.324Zm-25.172-45.757V110.632l17.2,17.3-3.6,21.592Zm6.15-50.554h21.806L156.4,119.018Zm-6.15,136.33V222.6h10.072Zm30.414-7.985h0a190.154,190.154,0,0,0-15.173,13.214,23.886,23.886,0,0,1-12.037,7.027l16.3-29.344,15.119,5.661C168.936,230.458,167.527,231.607,166.125,232.745Zm17.742-16.12c-1.14,1.3-2.25,2.505-3.292,3.563-.843.856-1.766,1.722-2.7,2.59l-17.643-6.607,8.312-11.083h15.324Zm0-20.292H168.542l-9.383-12.511L183.866,162.2v34.129Zm2.33-48.156H158.411l2.971-17.8,30.972-3.867,9.855,2.46Zm15.3,19.071a4.249,4.249,0,0,0-.069.777c-.556,6.45-.956,12.509-.956,16.577a42.07,42.07,0,0,1-7.845,20.388V154.145l11.719-14.057C203.7,145.512,202.41,156.776,201.493,167.248Zm4.134-46.813c-.056.086-.132.15-.187.237-.015.024-.014.051-.029.075l-8.41-2.1V104.4h8.627C205.793,109.887,205.767,115.39,205.627,120.435Zm12.3,1.51h0a4.98,4.98,0,0,1,4.16,1.458,10.435,10.435,0,0,1,.885,7.939,96.513,96.513,0,0,1-4.549,15.814l-.757,2.168c-.577,1.671-1.069,3.433-1.565,5.2a31.521,31.521,0,0,1-3.736,9.585,3.5,3.5,0,0,1-1.932,1.557c1.233-13.4,2.973-27.608,3.009-27.922.058-.656.542-6.24.84-14.051A6.68,6.68,0,0,1,217.923,121.945Z" transform="translate(0 -12.467)" fill="#fff"/>
            </g>
          </g>
        </g>
      </g>
    </g>
  </g>
</svg>
